<svg xmlns="http://www.w3.org/2000/svg" version="1.1" xmlns:xlink="http://www.w3.org/1999/xlink" width="256" height="256"><svg xmlns="http://www.w3.org/2000/svg" version="1.1" xmlns:xlink="http://www.w3.org/1999/xlink" width="256" height="256"><svg xmlns="http://www.w3.org/2000/svg" width="256" height="256" viewBox="0 0 100 100"><path fill="#2c5683" d="M21.70 60.80L21.70 60.80Q21.70 58.46 26.55 56.03L26.55 56.03Q26.64 49.10 28.89 41.90Q31.14 34.70 35.38 28.89Q39.60 23.09 45.68 19.40Q51.75 15.71 59.40 15.71Q67.06 15.71 71.47 18.63Q75.88 21.56 75.78 24.98L75.78 24.98Q75.78 26.78 74.34 26.78L74.34 26.78Q73.53 26.78 68.85 25.52Q64.17 24.26 59.63 24.30Q55.09 24.35 52.07 26.28Q49.05 28.22 46.80 31.28L46.80 31.28Q42.21 37.67 40.86 46.58L40.86 46.58Q48.88 42.98 58.05 42.98Q67.23 42.98 72.77 48.65Q78.31 54.32 78.31 62.06L78.31 62.06Q78.31 72.23 70.38 78.26Q62.46 84.29 50.31 84.29L50.31 84.29Q41.31 84.38 34.66 78.66Q27.99 72.95 26.73 61.16L26.73 61.16Q24.75 62.06 23.22 62.06Q21.70 62.06 21.70 60.80ZM66.25 61.92Q66.25 57.38 63.27 54.32Q60.30 51.26 53.73 51.26Q47.16 51.26 40.33 54.68L40.33 54.68Q40.69 63.32 44.42 68.13Q48.16 72.95 53.73 72.99Q59.31 73.04 62.78 69.75Q66.25 66.47 66.25 61.92Z"></path></svg></svg><style>@media (prefers-color-scheme: light) { :root { filter: none; } }
@media (prefers-color-scheme: dark) { :root { filter: none; } }
</style></svg>